<svg width="58" height="58" viewBox="0 0 58 58" fill="none" xmlns="http://www.w3.org/2000/svg">
<path d="M15.006 8.29219C15.2854 8.29219 15.5648 8.18646 15.7839 7.98255L15.7914 7.975C16.2521 7.54453 16.2747 6.83464 15.8443 6.37396C15.4214 5.92084 14.7039 5.89818 14.2432 6.3211L14.2281 6.3362C13.7675 6.76667 13.7523 7.48412 14.1828 7.93724C14.4018 8.17136 14.7039 8.29219 15.006 8.29219Z" fill="#28BFFF"/>
<path d="M29 0C25.0654 0 21.244 1.12526 17.9513 3.2474C17.4302 3.58724 17.2792 4.28958 17.619 4.81823C17.9589 5.33932 18.6537 5.49036 19.1823 5.15052C22.105 3.2625 25.5034 2.26562 29 2.26562C38.9914 2.26562 47.125 10.3992 47.125 20.3906C47.125 30.3141 41.8461 39.8146 38.6969 44.5875C38.576 44.7763 38.4477 44.9651 38.3268 45.1464C37.9719 45.6674 38.1154 46.3698 38.6289 46.7247C38.8253 46.8531 39.0443 46.9135 39.2633 46.9135C39.6258 46.9135 39.9883 46.7398 40.2073 46.4151C40.3357 46.2263 40.4641 46.0299 40.5925 45.8336C43.1526 41.9443 45.2068 37.9643 46.6945 34.0146C48.4844 29.2643 49.3906 24.6802 49.3906 20.3906C49.3906 9.14557 40.2451 0 29 0Z" fill="#28BFFF"/>
<path d="M38.1456 47.4497C37.6471 47.0646 36.9372 47.1552 36.5521 47.6461L36.537 47.6687L36.5294 47.6763C36.1443 48.1672 36.2424 48.8771 36.7333 49.2622C36.9372 49.4208 37.1865 49.5039 37.4281 49.5039C37.768 49.5039 38.1003 49.3453 38.3268 49.0583L38.3419 49.0357C38.7271 48.5448 38.6365 47.8273 38.1456 47.4497Z" fill="#28BFFF"/>
<path d="M35.2607 51.1352C34.7924 50.7198 34.075 50.7651 33.6596 51.2333C31.4469 53.7633 29.8005 55.1378 28.9924 55.6135C27.3688 54.662 23.1169 50.4781 19.0539 44.2099C15.3232 38.4552 10.875 29.657 10.875 20.3906C10.875 16.7656 11.9398 13.2766 13.9563 10.2859C14.3036 9.76484 14.1677 9.0625 13.6466 8.70755C13.1255 8.36016 12.4232 8.49609 12.0758 9.01719C9.81016 12.3854 8.60938 16.3201 8.60938 20.3906C8.60938 30.2083 13.2539 39.4294 17.1508 45.4409C21.5763 52.268 26.5607 57.2448 28.6375 57.9396C28.7583 57.9773 28.8792 58 29 58C29.1208 58 29.2417 57.9773 29.3625 57.9396C30.6313 57.5167 32.8818 55.5682 35.3664 52.7286C35.7742 52.2604 35.7289 51.543 35.2607 51.1352Z" fill="#28BFFF"/>
<path d="M29 36.25C37.7453 36.25 44.8594 29.1359 44.8594 20.3906C44.8594 11.6453 37.7453 4.53125 29 4.53125C20.2547 4.53125 13.1406 11.6453 13.1406 20.3906C13.1406 29.1359 20.2547 36.25 29 36.25ZM29 6.79687C36.4992 6.79687 42.5937 12.8914 42.5937 20.3906C42.5937 27.8898 36.4992 33.9844 29 33.9844C21.5008 33.9844 15.4062 27.8898 15.4062 20.3906C15.4062 12.8914 21.5008 6.79687 29 6.79687Z" fill="#28BFFF"/>
<path d="M18.057 26.0547C18.057 26.4625 18.276 26.8325 18.6234 27.0365L28.4336 32.7005H28.4412C28.4865 32.7232 28.5242 32.7458 28.5695 32.7685C28.5695 32.7685 28.5695 32.7685 28.5771 32.7685C28.6149 32.7836 28.6526 32.7987 28.6979 32.8062C28.7055 32.8138 28.7206 32.8138 28.7281 32.8138C28.7583 32.8289 28.7961 32.8289 28.8339 32.8365C28.8414 32.8365 28.8565 32.844 28.8641 32.844C28.9094 32.8516 28.9547 32.8516 29 32.8516C29.0453 32.8516 29.0906 32.8516 29.1359 32.844C29.1435 32.844 29.1586 32.8365 29.1662 32.8365C29.2039 32.8289 29.2417 32.8289 29.2719 32.8138C29.2794 32.8138 29.2945 32.8138 29.3021 32.8062C29.3474 32.7987 29.3852 32.7836 29.4229 32.7685C29.4305 32.7685 29.4305 32.7685 29.4305 32.7685C29.4758 32.7458 29.5135 32.7232 29.5589 32.7005H29.5664L39.3766 27.0365C39.724 26.8325 39.943 26.4625 39.943 26.0547V14.7266V14.719C39.943 14.6737 39.943 14.6208 39.9354 14.5755C39.9354 14.5755 39.9354 14.5755 39.9354 14.568C39.9279 14.5302 39.9203 14.4849 39.9052 14.4471C39.9052 14.432 39.8977 14.4245 39.8977 14.4094C39.8901 14.3792 39.875 14.349 39.8675 14.3112C39.8599 14.3036 39.8524 14.2885 39.8524 14.281C39.8373 14.2432 39.8146 14.1979 39.7919 14.1602C39.7693 14.1224 39.7466 14.0846 39.7164 14.0469C39.7089 14.0393 39.7013 14.0318 39.6938 14.0167C39.6711 13.994 39.6484 13.9638 39.6258 13.9411C39.6182 13.9336 39.6107 13.926 39.6031 13.9185C39.5729 13.8883 39.5427 13.8581 39.505 13.8354C39.505 13.8354 39.505 13.8279 39.4974 13.8279C39.4672 13.7977 39.4219 13.775 39.3841 13.7523L39.3766 13.7448L29.5664 8.08073C29.219 7.87682 28.781 7.87682 28.4336 8.08073L18.6234 13.7448L18.6159 13.7523C18.5781 13.775 18.5328 13.7977 18.5026 13.8279C18.4951 13.8279 18.4951 13.8354 18.4951 13.8354C18.4573 13.8581 18.4271 13.8883 18.3969 13.9185C18.3893 13.926 18.3818 13.9336 18.3742 13.9411C18.3516 13.9638 18.3289 13.994 18.3063 14.0167C18.2987 14.0318 18.2912 14.0393 18.2836 14.0469C18.2534 14.0846 18.2307 14.1224 18.2081 14.1602C18.1854 14.1979 18.1628 14.2432 18.1477 14.281C18.1477 14.2885 18.1401 14.3036 18.1326 14.3112C18.125 14.349 18.1099 14.3792 18.1023 14.4094C18.1023 14.4245 18.0948 14.432 18.0948 14.4471C18.0797 14.4849 18.0721 14.5302 18.0646 14.568C18.0646 14.5755 18.0646 14.5755 18.0646 14.5755C18.057 14.6208 18.057 14.6737 18.057 14.719V14.7266V26.0547ZM20.3227 16.6901L27.8672 21.0477V29.7552L20.3227 25.3977V16.6901ZM36.5445 14.7266L29 19.0841L26.3568 17.5586L33.9089 13.201L36.5445 14.7266ZM30.1328 29.7552V21.0477L37.6774 16.6901V25.3977L30.1328 29.7552ZM29 10.369L31.6432 11.8945L24.0912 16.2521L21.4555 14.7266L29 10.369Z" fill="#28BFFF"/>
</svg>
