<svg width="30" height="30" viewBox="0 0 30 30" fill="none" xmlns="http://www.w3.org/2000/svg">
<g clip-path="url(#clip0)">
<path d="M7.76173 4.28907C7.90627 4.28907 8.0508 4.23438 8.16408 4.12891L8.16798 4.125C8.40627 3.90235 8.41798 3.53516 8.19533 3.29688C7.97658 3.0625 7.60548 3.05078 7.3672 3.26953L7.35939 3.27735C7.12111 3.5 7.1133 3.8711 7.33595 4.10547C7.44923 4.22657 7.60548 4.28907 7.76173 4.28907Z" fill="#28BFFF"/>
<path d="M15 0C12.9648 0 10.9883 0.582031 9.28515 1.67969C9.01561 1.85547 8.93749 2.21875 9.11327 2.49219C9.28905 2.76172 9.64843 2.83984 9.92186 2.66406C11.4336 1.6875 13.1914 1.17188 15 1.17188C20.168 1.17188 24.375 5.37891 24.375 10.5469C24.375 15.6797 21.6445 20.5938 20.0156 23.0625C19.9531 23.1602 19.8867 23.2578 19.8242 23.3516C19.6406 23.6211 19.7148 23.9844 19.9805 24.168C20.082 24.2344 20.1953 24.2656 20.3086 24.2656C20.4961 24.2656 20.6836 24.1758 20.7969 24.0078C20.8633 23.9102 20.9297 23.8086 20.9961 23.707C22.3203 21.6953 23.3828 19.6367 24.1523 17.5938C25.0781 15.1367 25.5469 12.7656 25.5469 10.5469C25.5469 4.73047 20.8164 0 15 0Z" fill="#28BFFF"/>
<path d="M19.7305 24.543C19.4726 24.3437 19.1055 24.3906 18.9062 24.6445L18.8984 24.6562L18.8945 24.6602C18.6953 24.9141 18.7461 25.2812 19 25.4805C19.1055 25.5625 19.2344 25.6055 19.3594 25.6055C19.5351 25.6055 19.707 25.5234 19.8242 25.375L19.832 25.3633C20.0312 25.1094 19.9844 24.7383 19.7305 24.543Z" fill="#28BFFF"/>
<path d="M18.2383 26.4492C17.9961 26.2344 17.625 26.2578 17.4102 26.5C16.2656 27.8086 15.4141 28.5195 14.9961 28.7656C14.1562 28.2734 11.957 26.1094 9.85547 22.8672C7.92578 19.8906 5.625 15.3398 5.625 10.5469C5.625 8.67188 6.17578 6.86719 7.21875 5.32031C7.39844 5.05078 7.32813 4.6875 7.05859 4.50391C6.78906 4.32422 6.42578 4.39453 6.24609 4.66406C5.07422 6.40625 4.45312 8.44141 4.45312 10.5469C4.45312 15.625 6.85547 20.3945 8.87109 23.5039C11.1602 27.0352 13.7383 29.6094 14.8125 29.9688C14.875 29.9883 14.9375 30 15 30C15.0625 30 15.125 29.9883 15.1875 29.9688C15.8438 29.75 17.0078 28.7422 18.293 27.2734C18.5039 27.0313 18.4805 26.6602 18.2383 26.4492Z" fill="#28BFFF"/>
<path d="M15 18.75C19.5234 18.75 23.2031 15.0703 23.2031 10.5469C23.2031 6.02344 19.5234 2.34375 15 2.34375C10.4766 2.34375 6.79688 6.02344 6.79688 10.5469C6.79688 15.0703 10.4766 18.75 15 18.75ZM15 3.51562C18.8789 3.51562 22.0312 6.66797 22.0312 10.5469C22.0312 14.4258 18.8789 17.5781 15 17.5781C11.1211 17.5781 7.96875 14.4258 7.96875 10.5469C7.96875 6.66797 11.1211 3.51562 15 3.51562Z" fill="#28BFFF"/>
<path d="M9.33984 13.4766C9.33984 13.6875 9.45312 13.8789 9.63281 13.9844L14.707 16.9141H14.7109C14.7344 16.9258 14.7539 16.9375 14.7773 16.9492C14.7773 16.9492 14.7773 16.9492 14.7812 16.9492C14.8008 16.957 14.8203 16.9648 14.8438 16.9688C14.8477 16.9727 14.8555 16.9727 14.8594 16.9727C14.875 16.9805 14.8945 16.9805 14.9141 16.9844C14.918 16.9844 14.9258 16.9883 14.9297 16.9883C14.9531 16.9922 14.9766 16.9922 15 16.9922C15.0234 16.9922 15.0469 16.9922 15.0703 16.9883C15.0742 16.9883 15.082 16.9844 15.0859 16.9844C15.1055 16.9805 15.125 16.9805 15.1406 16.9727C15.1445 16.9727 15.1523 16.9727 15.1562 16.9688C15.1797 16.9648 15.1992 16.957 15.2188 16.9492C15.2227 16.9492 15.2227 16.9492 15.2227 16.9492C15.2461 16.9375 15.2656 16.9258 15.2891 16.9141H15.293L20.3672 13.9844C20.5469 13.8789 20.6602 13.6875 20.6602 13.4766V7.61719V7.61328C20.6602 7.58984 20.6602 7.5625 20.6562 7.53906C20.6562 7.53906 20.6562 7.53906 20.6562 7.53516C20.6523 7.51562 20.6484 7.49219 20.6406 7.47266C20.6406 7.46484 20.6367 7.46094 20.6367 7.45312C20.6328 7.4375 20.625 7.42187 20.6211 7.40234C20.6172 7.39844 20.6133 7.39062 20.6133 7.38672C20.6055 7.36719 20.5938 7.34375 20.582 7.32422C20.5703 7.30469 20.5586 7.28516 20.543 7.26562C20.5391 7.26172 20.5352 7.25781 20.5312 7.25C20.5195 7.23828 20.5078 7.22266 20.4961 7.21094C20.4922 7.20703 20.4883 7.20312 20.4844 7.19922C20.4688 7.18359 20.4531 7.16797 20.4336 7.15625C20.4336 7.15625 20.4336 7.15234 20.4297 7.15234C20.4141 7.13672 20.3906 7.125 20.3711 7.11328L20.3672 7.10937L15.293 4.17969C15.1133 4.07422 14.8867 4.07422 14.707 4.17969L9.63281 7.10937L9.62891 7.11328C9.60938 7.125 9.58594 7.13672 9.57031 7.15234C9.56641 7.15234 9.56641 7.15625 9.56641 7.15625C9.54688 7.16797 9.53125 7.18359 9.51562 7.19922C9.51172 7.20312 9.50781 7.20703 9.50391 7.21094C9.49219 7.22266 9.48047 7.23828 9.46875 7.25C9.46484 7.25781 9.46094 7.26172 9.45703 7.26562C9.44141 7.28516 9.42969 7.30469 9.41797 7.32422C9.40625 7.34375 9.39453 7.36719 9.38672 7.38672C9.38672 7.39062 9.38281 7.39844 9.37891 7.40234C9.375 7.42187 9.36719 7.4375 9.36328 7.45312C9.36328 7.46094 9.35938 7.46484 9.35938 7.47266C9.35156 7.49219 9.34766 7.51562 9.34375 7.53516C9.34375 7.53906 9.34375 7.53906 9.34375 7.53906C9.33984 7.5625 9.33984 7.58984 9.33984 7.61328V7.61719V13.4766ZM10.5117 8.63281L14.4141 10.8867V15.3906L10.5117 13.1367V8.63281ZM18.9023 7.61719L15 9.87109L13.6328 9.08203L17.5391 6.82812L18.9023 7.61719ZM15.5859 15.3906V10.8867L19.4883 8.63281V13.1367L15.5859 15.3906ZM15 5.36328L16.3672 6.15234L12.4609 8.40625L11.0977 7.61719L15 5.36328Z" fill="#28BFFF"/>
</g>
<defs>
<clipPath id="clip0">
<rect width="30" height="30" fill="white"/>
</clipPath>
</defs>
</svg>
